<?xml version="1.0" encoding="utf-8"?>
<!-- Generator: Adobe Illustrator 17.1.0, SVG Export Plug-In . SVG Version: 6.00 Build 0)  -->
<!DOCTYPE svg PUBLIC "-//W3C//DTD SVG 1.1//EN" "http://www.w3.org/Graphics/SVG/1.1/DTD/svg11.dtd">
<svg version="1.1" id="Слой_1" xmlns="http://www.w3.org/2000/svg" xmlns:xlink="http://www.w3.org/1999/xlink" x="0px" y="0px"
	 viewBox="0 0 500 500" enable-background="new 0 0 500 500" xml:space="preserve">
<path id="_x32_0_5_" fill="#41526B" d="M499.9,243.5l-89-102.6h-70.6V55.4H-0.1v324.1H72v3.5c0,33.9,27.6,61.5,61.5,61.5
	c33.9,0,61.4-27.6,61.4-61.5v-3.5h106v3.5c0,33.9,27.6,61.5,61.5,61.5s61.5-27.6,61.5-61.5v-3.5h75.9V243.5z M19.1,74.5h302.1v285.8
	H19.1V74.5z M175.8,383c0,23.3-19,42.3-42.3,42.3c-23.4,0-42.4-19-42.4-42.3v-3.5h84.7V383z M404.8,383c0,23.3-19,42.3-42.3,42.3
	c-23.3,0-42.3-19-42.3-42.3v-3.5h84.7V383z M480.7,360.3H340.3V160.1h61.8l78.6,90.6V360.3z"/>
</svg>
