<?xml version="1.0" encoding="utf-8"?>
<!-- Generator: Adobe Illustrator 17.1.0, SVG Export Plug-In . SVG Version: 6.00 Build 0)  -->
<!DOCTYPE svg PUBLIC "-//W3C//DTD SVG 1.1//EN" "http://www.w3.org/Graphics/SVG/1.1/DTD/svg11.dtd">
<svg version="1.1" id="Слой_1" xmlns="http://www.w3.org/2000/svg" xmlns:xlink="http://www.w3.org/1999/xlink" x="0px" y="0px"
	 viewBox="0 0 500 500" enable-background="new 0 0 500 500" xml:space="preserve">
<g id="_x30_3_5_">
	<path fill="#545759" d="M250.1,1.9C113,1.9,1.5,113.5,1.5,250.6c0,137.1,111.5,248.7,248.7,248.7c137.1,0,248.7-111.5,248.7-248.7
		C498.8,113.5,387.2,1.9,250.1,1.9z M250.1,477.9c-125.3,0-227.3-102-227.3-227.3c0-125.3,102-227.3,227.3-227.3
		c125.3,0,227.3,102,227.3,227.3C477.4,375.9,375.5,477.9,250.1,477.9z"/>
	<path fill="#545759" d="M300.3,250.9c-9.3-4.2-27.1-9.4-50.2-14.7c-26.3-6.3-36.6-11.2-39.1-12.6c-7.2-3.8-12.5-8.2-15.6-13.2
		c-3.1-4.9-4.5-10.1-4.5-16.3c0-7.2,1.9-13.5,6.1-19.8c4-6.1,10-10.8,18.2-14.2c9.6-4,20.6-6,32.7-6c13.6,0,25.5,2.1,35.4,6.3
		c8.7,3.7,15.1,8.7,19.5,15.6c2.3,3.5,3.9,7.3,5.1,11.2h22.2c-1.7-8.4-4.8-15.9-9.5-23c-6.8-10.4-16.3-18.1-29.1-23.5
		c-9.2-3.9-19.5-6.3-30.8-7.4v-26.5h-21.4v26.3c-11.7,0.8-22.6,3.2-32.4,7.2c-12.4,5.1-21.5,12.4-28,22.2
		c-6.4,9.8-9.6,20.2-9.6,31.5c0,10.3,2.6,19.4,7.8,27.7c5.2,8.2,13.2,15.2,23.7,20.7c4.9,2.6,17.2,8,44.2,14.5
		c21.2,4.8,38.5,9.8,46.2,13.3c9.3,4.3,16,9.4,20,15.3c3.8,5.7,5.6,12,5.6,19.7c0,7.8-2.1,14.8-6.7,21.9
		c-4.6,7.1-11.2,12.5-20.2,16.7c-9.9,4.5-21.4,6.8-34.1,6.8c-17.2,0-31.4-2.4-42.3-7.1c-9.8-4.2-17.2-10.3-22.7-18.6
		c-3.4-5.2-5.8-10.8-7.1-16.7H162c1.7,10.2,5.4,19.8,11.1,28.5c7.8,11.9,18.3,20.6,32.1,26.5c9.7,4.2,21.2,6.8,34.2,8v26.7h21.4
		v-26.1c13.9-0.5,26.8-3.3,38.2-8.5c12.8-5.9,22.4-13.9,29.2-24.5c6.8-10.6,10.2-21.5,10.2-33.5c0-12.1-3-22.4-9.3-31.7
		C323,264.5,313.3,256.8,300.3,250.9z"/>
</g>
</svg>
