<?xml version="1.0" encoding="utf-8"?>
<!-- Generator: Adobe Illustrator 17.1.0, SVG Export Plug-In . SVG Version: 6.00 Build 0)  -->
<!DOCTYPE svg PUBLIC "-//W3C//DTD SVG 1.1//EN" "http://www.w3.org/Graphics/SVG/1.1/DTD/svg11.dtd">
<svg version="1.1" id="Слой_1" xmlns="http://www.w3.org/2000/svg" xmlns:xlink="http://www.w3.org/1999/xlink" x="0px" y="0px"
	 viewBox="0 0 500 500" enable-background="new 0 0 500 500" xml:space="preserve">
<path id="_x31_1_5_" d="M415.2,118.2c7.2-9.2,12.1-20.8,14.5-34.9c5.9-34.8-10.5-66.6-40-77.4C339.3-12.4,287.4,33,250.3,79
	c-37.1-46-89-91.5-139.4-73.1c-30,11-46,42.1-40,77.4c2.4,14.1,7.3,25.7,14.5,34.9H20.7v380.9h459.2V118.2H415.2z M91.9,79.8
	c-4.2-24.8,6.3-46.4,26.3-53.7c44.4-16.2,96.5,41.2,123.6,76.8l8.5,11.2l8.5-11.2c27.1-35.7,79.2-93,123.5-76.8
	c20,7.3,30.5,28.9,26.3,53.7c-4.5,26.4-18.5,34.7-29.2,38.4H121.1C110.3,114.5,96.4,106.2,91.9,79.8z M458.5,477.8H42V139.6h416.4
	v338.2H458.5z"/>
</svg>
