<?xml version="1.0" encoding="utf-8"?>
<!-- Generator: Adobe Illustrator 17.1.0, SVG Export Plug-In . SVG Version: 6.00 Build 0)  -->
<!DOCTYPE svg PUBLIC "-//W3C//DTD SVG 1.1//EN" "http://www.w3.org/Graphics/SVG/1.1/DTD/svg11.dtd">
<svg version="1.1" id="Слой_1" xmlns="http://www.w3.org/2000/svg" xmlns:xlink="http://www.w3.org/1999/xlink" x="0px" y="0px"
	 viewBox="0 0 500 500" enable-background="new 0 0 500 500" xml:space="preserve">
<path id="_x30_8_5_" d="M250.4,481.4L44.2,275.2c-58.9-58.9-58.9-154.9,0-213.8c28.6-28.6,66.5-44.3,106.9-44.3
	c36.9,0,71.8,13.1,99.3,37.2c27.5-24,62.4-37.2,99.3-37.2c40.4,0,78.3,15.7,106.9,44.3c28.6,28.5,44.3,66.5,44.3,106.9
	s-15.7,78.3-44.3,106.9L250.4,481.4L250.4,481.4z M151.1,38.7c-34.6,0-67.2,13.5-91.7,38C8.9,127.2,8.9,209.4,59.4,260l191,191
	l191-191c24.5-24.5,38-57,38-91.7c0-34.6-13.5-67.2-38-91.7s-57-38-91.7-38c-34.6,0-67.2,13.5-91.7,38l-7.6,7.6l-7.6-7.6
	C218.3,52.1,185.7,38.7,151.1,38.7L151.1,38.7z"/>
</svg>
