<?xml version="1.0" encoding="utf-8"?>
<!-- Generator: Adobe Illustrator 17.1.0, SVG Export Plug-In . SVG Version: 6.00 Build 0)  -->
<!DOCTYPE svg PUBLIC "-//W3C//DTD SVG 1.1//EN" "http://www.w3.org/Graphics/SVG/1.1/DTD/svg11.dtd">
<svg version="1.1" id="_x30_6_shopping_thin" xmlns="http://www.w3.org/2000/svg" xmlns:xlink="http://www.w3.org/1999/xlink"
	 x="0px" y="0px" viewBox="0 0 363.2 266.9" enable-background="new 0 0 363.2 266.9" xml:space="preserve">
<g id="_x30_1_5_">
	<path fill="#545759" d="M18.9,17C18.8,17,18.8,17,18.9,17L15.7,6.9L0,0.3v3l13.4,5.6l13.5,43.8h42.1L80.1,17H18.9z M67,50H29
		l-9.3-30.2h56.7L67,50z"/>
	<path fill="#545759" d="M37.7,58.7c-2.5,0-4.6,2.1-4.6,4.6c0,2.5,2.1,4.6,4.6,4.6c2.5,0,4.6-2,4.6-4.6
		C42.3,60.8,40.2,58.7,37.7,58.7z"/>
	<path fill="#545759" d="M58.3,58.7c-2.5,0-4.6,2.1-4.6,4.6c0,2.5,2.1,4.6,4.6,4.6c2.5,0,4.6-2,4.6-4.6
		C62.9,60.8,60.8,58.7,58.3,58.7z"/>
</g>
<path id="_x30_2_5_" fill="#545759" d="M118.2,1.8L93.8,24.4H82.3l10.3,38.4h51.1L154,24.4h-11.5L118.2,1.8z M118.2,5.7l20.2,18.8
	H97.9L118.2,5.7z M141.6,60H94.8L86,27.2h64.4L141.6,60z"/>
<g id="_x30_3_5_">
	<path fill="#545759" d="M190,0c-18,0-32.6,14.6-32.6,32.6c0,18,14.6,32.6,32.6,32.6c18,0,32.6-14.6,32.6-32.6
		C222.6,14.6,208,0,190,0z M190,62.4c-16.4,0-29.8-13.4-29.8-29.8c0-16.4,13.4-29.8,29.8-29.8c16.4,0,29.8,13.4,29.8,29.8
		C219.8,49,206.5,62.4,190,62.4z"/>
	<path fill="#545759" d="M196.6,32.6c-1.2-0.6-3.6-1.2-6.6-1.9c-3.4-0.8-4.8-1.5-5.1-1.6c-0.9-0.5-1.6-1.1-2-1.7
		c-0.4-0.6-0.6-1.3-0.6-2.1c0-0.9,0.3-1.8,0.8-2.6c0.5-0.8,1.3-1.4,2.4-1.9c1.3-0.5,2.7-0.8,4.3-0.8c1.8,0,3.3,0.3,4.6,0.8
		c1.1,0.5,2,1.1,2.6,2c0.3,0.5,0.5,1,0.7,1.5h2.9c-0.2-1.1-0.6-2.1-1.2-3c-0.9-1.4-2.1-2.4-3.8-3.1c-1.2-0.5-2.6-0.8-4-1v-3.5h-2.8
		v3.4c-1.5,0.1-3,0.4-4.3,0.9c-1.6,0.7-2.8,1.6-3.7,2.9c-0.8,1.3-1.3,2.6-1.3,4.1c0,1.4,0.3,2.5,1,3.6c0.7,1.1,1.7,2,3.1,2.7
		c0.6,0.3,2.3,1,5.8,1.9c2.8,0.6,5,1.3,6.1,1.7c1.2,0.6,2.1,1.2,2.6,2c0.5,0.7,0.7,1.6,0.7,2.6c0,1-0.3,1.9-0.9,2.9
		c-0.6,0.9-1.5,1.6-2.6,2.2c-1.3,0.6-2.8,0.9-4.5,0.9c-2.2,0-4.1-0.3-5.5-0.9c-1.3-0.6-2.3-1.4-3-2.4c-0.5-0.7-0.8-1.4-0.9-2.2h-2.9
		c0.2,1.3,0.7,2.6,1.5,3.7c1,1.6,2.4,2.7,4.2,3.5c1.3,0.5,2.8,0.9,4.5,1.1v3.5h2.8v-3.4c1.8-0.1,3.5-0.4,5-1.1
		c1.7-0.8,2.9-1.8,3.8-3.2c0.9-1.4,1.3-2.8,1.3-4.4c0-1.6-0.4-2.9-1.2-4.1C199.6,34.4,198.3,33.4,196.6,32.6z"/>
</g>
<path id="_x30_4_5_" fill="#545759" d="M290.1,23h-5.5V4.9h-62.5v55.4h62.5V42.1h5.5V23z M281.8,57.5h-56.9V7.7h56.9V23h-17v19.1h17
	V57.5z M287.3,39.3h-19.7V25.8h19.7V39.3z"/>
<path id="_x30_5_5_" fill="#545759" d="M291.2,6.2v52.7H362V6.2H291.2z M359.2,9V40H294V9H359.2z M294,56.1V42.8h65.2v13.4H294z"/>
<path id="_x30_6_5_" fill="#545759" d="M67.7,80.1h-7.2c-0.5-6.8-6.2-12.3-13.2-12.3c-7,0-12.7,5.4-13.2,12.3h-7.2l-6.7,52.8h54.2
	L67.7,80.1z M47.3,70.7c5.4,0,9.9,4.2,10.4,9.5H36.9C37.4,74.8,41.9,70.7,47.3,70.7z M29.4,82.9h35.9l6,47.2H23.4L29.4,82.9z"/>
<g id="_x30_7_5_">
	<path fill="#545759" d="M100.9,97.5c-7.2,0-13.1-5.9-13.1-13.1c0-7.2,5.9-13.1,13.1-13.1c7.2,0,13.1,5.9,13.1,13.1
		C113.9,91.6,108.1,97.5,100.9,97.5L100.9,97.5z M100.9,74.1c-5.7,0-10.3,4.6-10.3,10.3c0,5.7,4.6,10.3,10.3,10.3
		c5.7,0,10.3-4.6,10.3-10.3C111.1,78.7,106.5,74.1,100.9,74.1L100.9,74.1z"/>
	<path fill="#545759" d="M135.2,129.5c-7.2,0-13.1-5.9-13.1-13.1c0-7.2,5.9-13.1,13.1-13.1c7.2,0,13.1,5.9,13.1,13.1
		C148.3,123.6,142.4,129.5,135.2,129.5L135.2,129.5z M135.2,106.1c-5.7,0-10.3,4.6-10.3,10.3c0,5.7,4.6,10.3,10.3,10.3
		c5.7,0,10.3-4.6,10.3-10.3C145.5,110.7,140.9,106.1,135.2,106.1L135.2,106.1z"/>
	<polygon fill="#545759" points="101,130.3 138.3,70.5 135,70.5 97.7,130.3 	"/>
</g>
<path id="_x30_8_5_" fill="#545759" d="M190,130.9l-26.8-26.8c-7.7-7.7-7.7-20.1,0-27.8c3.7-3.7,8.7-5.8,13.9-5.8
	c4.8,0,9.3,1.7,12.9,4.8c3.6-3.1,8.1-4.8,12.9-4.8c5.3,0,10.2,2,13.9,5.8c3.7,3.7,5.8,8.7,5.8,13.9c0,5.3-2,10.2-5.8,13.9L190,130.9
	L190,130.9z M177.1,73.3c-4.5,0-8.7,1.8-11.9,4.9c-6.6,6.6-6.6,17.3,0,23.9l24.8,24.8l24.8-24.8c3.2-3.2,4.9-7.4,4.9-11.9
	c0-4.5-1.8-8.7-4.9-11.9c-3.2-3.2-7.4-4.9-11.9-4.9c-4.5,0-8.7,1.8-11.9,4.9l-1,1l-1-1C185.9,75,181.6,73.3,177.1,73.3L177.1,73.3z"
	/>
<path id="_x30_9_5_" fill="#545759" d="M283,128.4l-13.5-13.5c4.5-5,6.9-11.3,6.9-18c0-7.2-2.8-13.9-7.9-19
	c-5.1-5.1-11.8-7.9-19-7.9c-7.2,0-13.9,2.8-19,7.9c-5.1,5.1-7.9,11.8-7.9,19c0,7.2,2.8,13.9,7.9,19c5.1,5.1,11.8,7.9,19,7.9
	c6.7,0,13.1-2.4,18-6.9l13.5,13.5L283,128.4z M232.5,114c-4.6-4.6-7.1-10.6-7.1-17c0-6.4,2.5-12.5,7.1-17.1c4.6-4.6,10.6-7.1,17-7.1
	c6.4,0,12.5,2.5,17,7.1c4.6,4.6,7.1,10.6,7.1,17s-2.5,12.5-7.1,17c-4.6,4.6-10.6,7.1-17.1,7.1C243.1,121,237.1,118.5,232.5,114z"/>
<path id="_x31_0_5_" fill="#545759" d="M301.5,68.7v65.1l25.1-21.2l25.1,21.2V68.7H301.5z M349,127.7l-22.3-18.8l-22.3,18.8V71.5
	H349V127.7z"/>
<path id="_x31_1_5_" fill="#545759" d="M68.9,147.9c0.9-1.2,1.6-2.7,1.9-4.6c0.8-4.6-1.4-8.7-5.2-10.1c-6.6-2.4-13.4,3.6-18.3,9.6
	c-4.9-6-11.7-12-18.3-9.6c-3.9,1.4-6,5.5-5.2,10.1c0.3,1.8,1,3.4,1.9,4.6h-8.5v49.9h60.2v-49.9H68.9z M26.6,142.9
	c-0.6-3.3,0.8-6.1,3.4-7c5.8-2.1,12.6,5.4,16.2,10.1l1.1,1.5l1.1-1.5c3.6-4.7,10.4-12.2,16.2-10.1c2.6,1,4,3.8,3.4,7
	c-0.6,3.5-2.4,4.5-3.8,5H30.4C29,147.5,27.1,146.4,26.6,142.9z M74.6,195.1H20v-44.3h54.6V195.1z"/>
<g id="_x31_2_5_">
	<circle fill="#545759" cx="95.7" cy="165.3" r="3.4"/>
	<path fill="#545759" d="M106.7,139.5L87,154.3c-3.6,2.9-5.6,6.8-5.6,11c0,4.2,2,8,5.7,11l19.7,14.8H155v-51.5H106.7z M152.2,188.2
		h-44.6l-18.9-14.2c-3-2.4-4.6-5.5-4.6-8.8c0-3.3,1.6-6.4,4.5-8.7l19-14.2h44.6V188.2z"/>
</g>
<path id="_x31_3_5_" fill="#545759" d="M225.1,157.1l-23.3-4.8L190,131.7l-11.7,20.7l-23.3,4.8l16.1,17.6l-2.7,23.6l21.7-9.9
	l21.7,9.9l-2.7-23.6L225.1,157.1z M190,185.4l-18.3,8.3l2.3-20l-13.6-14.9l19.7-4l9.9-17.5l9.9,17.5l19.7,4l-13.6,14.9l2.3,20
	L190,185.4z"/>
<g id="_x31_4_5_">
	<path fill="#545759" d="M229,132.6v65.3h48.2v-65.3H229z M274.3,195.1h-42.6v-12.9h42.6V195.1z M274.3,179.4h-42.6v-44h42.6V179.4z
		"/>
	<circle fill="#545759" cx="253.1" cy="188.7" r="2.7"/>
</g>
<path id="_x31_5_5_" fill="#545759" d="M352.8,178.7c-2-0.8-10.6-3.6-13.5-4.6v-4.5c0-0.4,0.5-1.8,0.9-3.1c1.2-3.5,2.9-8.7,2.9-14.1
	c0-11.2-6.6-18.7-16.5-18.7c-9.9,0-16.5,7.5-16.5,18.7c0,5.4,1.7,10.7,2.9,14.1c0.4,1.3,0.9,2.7,0.9,3.1v4.5
	c-2.9,1-11.5,3.9-13.5,4.6c-4.6,1.7-7.2,5.5-7.2,10.4l0,7.7H360l0-7.7C360.1,184.3,357.4,180.5,352.8,178.7z M357.3,194H296l0-4.9
	c0-3.7,1.9-6.4,5.4-7.8c2.3-0.9,14.2-4.9,14.4-4.9l1-0.3v-6.5c0-0.8-0.4-2.1-1-4c-1.1-3.3-2.8-8.3-2.8-13.2
	c0-9.7,5.4-15.9,13.7-15.9c8.3,0,13.7,6.2,13.7,15.9c0,5-1.7,9.9-2.8,13.2c-0.6,1.9-1,3.1-1,4v6.5l1,0.3c0.1,0,12,4,14.4,4.9
	c3.6,1.3,5.4,4,5.4,7.8L357.3,194z"/>
<g id="_x31_6_5_">
	<path fill="#545759" d="M75.9,242.9v-35.4l-30.5,38.2h27.7v9.8h2.8v-9.8h5.4v-2.8H75.9z M73.1,242.9H51.2l21.9-27.4V242.9z"/>
	<path fill="#545759" d="M38.9,229.3c1.2-2.2,1.8-4.7,1.8-7.2c0-3.7-1.3-6.8-3.8-9.5c-2.6-2.7-5.9-4-10.1-4
		c-8.2,0-14.9,6.7-14.9,14.9h2.8c0-6.7,5.4-12.1,12.1-12.1c3.4,0,6,1,8.1,3.1c2.1,2.2,3.1,4.6,3.1,7.5c0,2.1-0.5,4.1-1.5,5.9
		c-1.1,2.1-3.5,5.1-7,8.9l-17.3,18.7h28.2v-2.8H18.5l13-14C35.2,234.7,37.6,231.6,38.9,229.3z"/>
</g>
<path id="_x31_7_5_" fill="#545759" d="M83,208.1v48.6h70.3v-48.6H83z M118.2,241.2l-30.4-30.4h60.7L118.2,241.2z M105.3,232.3
	l-19.5,19.5v-39L105.3,232.3z M107.3,234.3l10.8,10.8l10.8-10.8l19.5,19.5H87.8L107.3,234.3z M131,232.3l19.5-19.5v39L131,232.3z"/>
<path id="_x31_8_5_" fill="#545759" d="M221.9,249.6c-0.4-2.1-1.6-4-3.4-5.2c-3.8-2.5-7.2-4.7-9.7-6.3l-0.6-0.4
	c-1.3-0.9-3.2-1.4-5-1.4c-1.9,0-3.5,0.6-4.5,1.6c-0.7,0.7-1.7,2-2.2,2.6c-0.8,1-1.1,1.3-1.7,1.3c-0.5,0-1.1-0.2-1.9-0.7
	c-2.1-1.3-3.6-2.6-6.4-5l-0.3-0.4c-2.4-2.7-3.7-4.2-4.9-6.3c-1.2-2.1-0.7-2.5,0.6-3.5c0.6-0.5,1.9-1.5,2.6-2.2
	c2.3-2.2,2-6.8,0.3-9.5l-0.3-0.5c-1.6-2.5-3.9-6-6.4-9.9c-1.5-2.2-4-3.6-6.7-3.6c-1.6,0-3.2,0.5-4.6,1.4l-0.2,0.1
	c-4.4,2.9-7.1,6.5-8.1,10.7c-1,4.5-1.5,17,16.4,34.9c14.7,14.7,25.7,16.9,31,16.9c0,0,0,0,0,0c1.4,0,2.7-0.1,3.9-0.4
	c4.2-0.9,7.8-3.7,10.7-8.1l0.1-0.2C221.9,253.9,222.3,251.7,221.9,249.6z M218.3,254.1l-0.2,0.3c-2.5,3.8-5.5,6.1-9,6.9
	c-1,0.2-2.1,0.3-3.3,0.3c-4.8,0-15-2.1-29-16c-16.9-16.9-16.6-28.2-15.7-32.3c0.8-3.5,3.1-6.5,6.9-9l0.3-0.2c0.9-0.6,1.9-0.9,3-0.9
	c1.8,0,3.4,0.9,4.4,2.3c2.5,3.8,4.8,7.3,6.4,9.8l0.3,0.5c1.1,1.7,1.4,4.8,0.2,5.9c-0.5,0.5-1.6,1.4-2.4,2c-1.3,1-3.8,2.9-1.3,7.1
	c1.4,2.4,2.9,4,5.3,6.7l0.6,0.6c2.8,2.5,4.4,3.9,6.8,5.3c1.2,0.7,2.3,1.1,3.3,1.1c2,0,3.2-1.5,3.9-2.4c0.5-0.7,1.5-1.8,2-2.4
	c0.5-0.5,1.4-0.8,2.5-0.8c1.2,0,2.6,0.4,3.5,0.9l0.6,0.4c2.5,1.6,5.9,3.8,9.7,6.3c1.2,0.8,2,2,2.2,3.4
	C219.4,251.5,219.1,252.9,218.3,254.1z"/>
<g id="_x31_9_5_">
	<path fill="#545759" d="M253.1,198.3c-13.8,0-25.1,11.3-25.1,25.1c0,18.6,23.1,41.5,24.1,42.5l1,1l1-1c1-1,24.1-23.9,24.1-42.5
		C278.1,209.6,266.9,198.3,253.1,198.3z M253.1,262.9c-4.4-4.6-22.3-24.2-22.3-39.5c0-12.3,10-22.3,22.3-22.3
		c12.3,0,22.3,10,22.3,22.3C275.3,238.8,257.5,258.3,253.1,262.9z"/>
	<path fill="#545759" d="M253.1,213.7c-5.3,0-9.7,4.4-9.7,9.7c0,5.3,4.4,9.7,9.7,9.7c5.3,0,9.7-4.3,9.7-9.7
		C262.8,218.1,258.4,213.7,253.1,213.7z M253.1,230.3c-3.8,0-6.9-3.1-6.9-6.9c0-3.8,3.1-6.9,6.9-6.9c3.8,0,6.9,3.1,6.9,6.9
		C260,227.2,256.9,230.3,253.1,230.3z"/>
</g>
<path id="_x32_0_5_" fill="#545759" d="M363.2,231.4l-13-15h-10.3v-12.5h-49.8v47.4h10.5v0.5c0,5,4,9,9,9c5,0,9-4,9-9v-0.5h15.5v0.5
	c0,5,4,9,9,9c5,0,9-4,9-9v-0.5h11.1V231.4z M292.9,206.7h44.2v41.8h-44.2V206.7z M315.8,251.8c0,3.4-2.8,6.2-6.2,6.2
	c-3.4,0-6.2-2.8-6.2-6.2v-0.5h12.4V251.8z M349.3,251.8c0,3.4-2.8,6.2-6.2,6.2c-3.4,0-6.2-2.8-6.2-6.2v-0.5h12.4V251.8z
	 M360.4,248.5h-20.5v-29.3h9l11.5,13.3V248.5z"/>
</svg>
