<?xml version="1.0" encoding="utf-8"?>
<!-- Generator: Adobe Illustrator 17.1.0, SVG Export Plug-In . SVG Version: 6.00 Build 0)  -->
<!DOCTYPE svg PUBLIC "-//W3C//DTD SVG 1.1//EN" "http://www.w3.org/Graphics/SVG/1.1/DTD/svg11.dtd">
<svg version="1.1" id="Layer_1" xmlns="http://www.w3.org/2000/svg" xmlns:xlink="http://www.w3.org/1999/xlink" x="0px" y="0px"
	 viewBox="0 0 440 586.8" enable-background="new 0 0 440 586.8" xml:space="preserve">
<path fill="#41516B" d="M381.9,390.6c0.1-0.9,0.2-1.9,0.2-2.9c0-10.1-5.6-18.1-12.7-18.1c-3.7,0-7,2.2-9.2,5.6c0,0,0,0-0.1-0.1
	c0.7-0.8,1.1-1.7,1.1-2.9v-31c1.8-0.2,3.2-1.5,3.6-3.3l3.4-16.8c0.2-1.2-0.1-2.5-0.9-3.5c-0.4-0.4-0.8-0.8-1.3-1.1
	c6.2-6,9.9-13.7,9.9-22.1c0-2.8-0.4-5.5-1.2-8.1c-0.5-2.7-3.3-14.3-18.5-23.8c-15.6-9.8-18.3-29.3-18.6-31.2V196
	c0-2.3-1.9-4.2-4.2-4.2c-2.3,0-4.2,1.9-4.2,4.2v35.3c-0.2,1.9-2.9,21.4-18.5,31.3c-15.6,9.8-18.5,22.9-18.9,25.3
	c-0.5,2.2-0.8,4.4-0.8,6.7c0,8.4,3.7,16.1,9.9,22.1c-0.5,0.3-1,0.6-1.3,1.1c-0.8,1-1.1,2.3-0.9,3.5l3.4,16.8
	c0.4,1.8,1.8,3.1,3.6,3.3v31c0,1.1,0.4,2.1,1.1,2.9c0,0,0,0-0.1,0.1c-2.3-3.5-5.6-5.6-9.2-5.6c-7.1,0-12.7,7.9-12.7,18.1
	c0,1,0.1,2,0.2,2.9c-0.7,0.7-1.1,1.7-1.1,2.8v21.9c0,2.3,1.9,4.2,4.2,4.2h3.1v45.3c0,2,1.4,3.8,3.4,4.1c0.3,0,0.5,0.1,0.8,0.1
	c1.7,0,3.3-1,3.9-2.7l14.4-37.4l10.8,37.1c0.5,1.8,2.1,3,4,3c0,0,0,0,0,0c1.8,0,3.5-1.2,4-2.9l11.6-36.5l11.9,36.6
	c0.6,1.8,2.2,3,4.2,2.9c1.9-0.1,3.5-1.4,3.9-3.3l2.9-12.8v11.9c0,2.3,1.9,4.2,4.2,4.2c2.3,0,4.2-1.9,4.2-4.2v-45.3h3.1
	c2.3,0,4.2-1.9,4.2-4.2v-21.9C383,392.3,382.5,391.3,381.9,390.6z M374.5,404.2v6.8h-82.1v-6.8v-6.7h12.4h3.4H332h3h23.7h3.4h12.4
	V404.2z M314.2,341.4h38.7v26.8h-38.7V341.4z M369.4,378c1.5,0,4.3,3.7,4.3,9.7c0,0.5,0,1-0.1,1.5h-8.3c0-0.5-0.1-1-0.1-1.5
	C365.1,381.7,367.9,378,369.4,378z M356.6,389.1h-18.7c0-0.5,0.1-1,0.1-1.5c0-0.9-0.1-1.7-0.2-2.5c1.1-4.1,4.9-7.1,9.3-7.1
	c5.3,0,9.7,4.3,9.7,9.7C356.7,388.2,356.7,388.7,356.6,389.1z M299.5,294.5c0-2,0.3-4,0.9-5.9l-0.1-0.1c0.1-0.4,0.2-0.9,0.4-1.4
	c1.2-3.7,4.7-11.3,14.5-17.5c4.1-2.6,7.5-5.7,10.2-9c3.6-4.3,6.2-9,8-13.3c1.8,4.3,4.4,9,8,13.3c2.8,3.3,6.1,6.4,10.2,9
	c5.1,3.2,8.4,6.6,10.6,9.6c3.5,4.8,4.1,8.6,4.1,8.9c0,0,0,0,0,0l0,0c0,0.1,0.1,0.3,0.1,0.4c0,0.2,0.1,0.4,0.2,0.5
	c0.5,1.7,0.7,3.5,0.7,5.4c0,9-6,17-15.1,21.6h-37.9C305.5,311.5,299.5,303.5,299.5,294.5z M354.2,324.6h4.7l-1.7,8.4H357H310h-0.2
	l-1.7-8.4h4.7H354.2z M319.9,378c4.4,0,8.2,3,9.3,7.1c-0.1,0.8-0.2,1.7-0.2,2.5c0,0.5,0,1,0.1,1.5h-18.7c-0.1-0.5-0.1-1-0.1-1.5
	C310.3,382.4,314.6,378,319.9,378z M297.6,378c1.5,0,4.3,3.7,4.3,9.7c0,0.5,0,1-0.1,1.5h-8.3c0-0.5-0.1-1-0.1-1.5
	C293.3,381.7,296.1,378,297.6,378z M299.7,442.2v-22.8h8.8L299.7,442.2z M328.9,450.4l-9-30.9h18.8L328.9,450.4z M359.5,449.1
	l-9.6-29.6h16.4L359.5,449.1z"/>
<path fill="#41516B" d="M380.4,465.6h-84.7c0.1-1.4,0.2-2.8,0.2-4.3c0-16-7.5-30.2-18.8-38.5v-36l0.5-0.5c6.2-5.2,9.6-12,9.6-19.1
	c0-2.2-0.3-4.4-0.9-6.4c-0.5-2.6-2.9-11.6-14.7-19c-8.4-5.3-11.8-14.5-13.1-19.5l-0.7-2.7v-28.6c0-2.3-1.9-4.2-4.2-4.2
	c-2.3,0-4.2,1.9-4.2,4.2v28.6l-0.7,2.7c-1.3,5-4.7,14.2-13.1,19.5c-12.3,7.7-14.6,18.1-15,20.1c-0.4,1.8-0.6,3.6-0.6,5.3
	c0,7.2,3.4,14,9.6,19.1l0.5,0.5v36c-1.6,1.2-3.1,2.4-4.5,3.8L218,406c-0.6-1.7-2.3-2.8-4-2.8c-1.8,0-3.4,1.2-3.9,2.9l-19,59.5H55.1
	c-2.3,0-4.2,1.9-4.2,4.2c0,2.3,1.9,4.2,4.2,4.2h157.7h8.7h63.9h8.7h86.2c2.3,0,4.2-1.9,4.2-4.2C384.6,467.5,382.7,465.6,380.4,465.6
	z M235.6,381l-0.8-0.6c-4.4-3.6-6.8-8.2-6.8-13c0-1.4,0.2-2.8,0.7-4.3l0.1-0.6l0,0c0-0.2,0.1-0.3,0.2-0.5c0.9-2.9,3.6-8.5,10.9-13.1
	c3-1.9,5.7-4.3,8.1-7.1c2.2-2.6,4-5.5,5.6-8.8c1.5,3.2,3.4,6.2,5.6,8.8c2.4,2.8,5.1,5.2,8.1,7.1c3.3,2.1,6,4.5,8,7.2
	c1.9,2.6,2.6,4.7,2.9,5.9l-0.1,0l0.2,0.8c0,0.1,0,0.1,0.1,0.3c0,0.2,0.1,0.4,0.1,0.4c0.4,1.3,0.5,2.6,0.5,3.9c0,4.8-2.4,9.5-6.8,13
	l-0.7,0.6H235.6z M238.4,390.8v-1.5h30.3v1.5v27.2c-4.7-2-9.8-3.1-15.1-3.1c-5.3,0-10.4,1.1-15.1,3.1V390.8z M214.3,420.5l4.9,13.7
	l3.8,10.5l7.4,20.3h-10.7h-8.4h-11.2L214.3,420.5z M239.5,465.6l-10.9-30.1c0.8-1,1.7-1.9,2.6-2.8c3.2-3.1,7-5.6,11.1-7.2
	c3.5-1.4,7.2-2.1,11.1-2.1c3.9,0,7.6,0.7,11.1,2.1c4.1,1.6,7.9,4.1,11.1,7.2c7.2,7,11.7,17.2,11.7,28.6c0,1.5-0.1,2.9-0.2,4.3H239.5
	z"/>
<path fill="#41516B" d="M437.6,530.4h-60.4c-1.3,0-2.4-2-2.4-4.5c0-2.5,1.1-4.5,2.4-4.5h60.4c1.3,0,2.4,2,2.4,4.5
	C440,528.4,438.9,530.4,437.6,530.4z"/>
<path fill="#41516B" d="M62.6,530.4H2.4c-1.3,0-2.4-2-2.4-4.5c0-2.5,1.1-4.5,2.4-4.5h60.3c1.3,0,2.4,2,2.4,4.5
	C65,528.4,63.9,530.4,62.6,530.4z"/>
<path fill="#41516B" d="M186.4,409.6c0-0.2,0-0.3-0.1-0.5c0.7-1.8,1.1-3.8,1.1-6c0-7.7-5.4-14.2-12.6-15.8v-26.4
	c1.8-0.2,3.2-1.5,3.6-3.3l3.4-16.8c0.2-1.2-0.1-2.5-0.9-3.5c-0.4-0.4-0.8-0.8-1.3-1.1c6.2-6,9.9-13.7,9.9-22.1
	c0-2.8-0.4-5.5-1.2-8.1c-0.5-2.7-3.3-14.3-18.5-23.8c-15.6-9.8-18.3-29.4-18.6-31.2v-35.3c0-2.3-1.9-4.2-4.2-4.2
	c-2.3,0-4.2,1.9-4.2,4.2v35.3c-0.2,1.9-2.9,20.8-17.8,30.8c-3-4.4-7.6-9.3-14.7-13.7c-17.7-11.1-20.1-33.8-20.1-34c0,0,0,0,0,0
	c0-0.2-0.1-0.4-0.1-0.6c0-0.1,0-0.2-0.1-0.3c0-0.1-0.1-0.2-0.1-0.4v-36.9c0-2.3-1.9-4.2-4.2-4.2c-2.3,0-4.2,1.9-4.2,4.2v36.9
	c-0.1,0.1-0.1,0.2-0.1,0.4c0,0.1,0,0.1,0,0.2c-0.1,0.2-0.1,0.5-0.1,0.7c0,0,0,0,0,0c0,0.2-2.4,22.9-20.1,34
	c-16.9,10.6-20,24.9-20.5,27.4c-0.6,2.3-0.9,4.8-0.9,7.2c0,10.1,4.9,19.2,12.9,25.9v56.1c-5.8,0.7-10.3,7.3-11,16.2
	c-0.1,0.8-0.1,1.7-0.1,2.5c0,0.9,0,1.7,0.1,2.6c0,0.1-0.1,0.1-0.1,0.2l0,0l0,0l0,0v0l-0.1,0.1c0,0,0,0,0,0c0,0,0,0,0,0l0,0h0
	l-0.1,0.2c0,0,0,0,0,0c0,0.1-0.1,0.2-0.1,0.3l0,0c0,0.1,0,0.1,0,0.1c0,0.2-0.1,0.3-0.1,0.5l0,0.2c0,0.2-0.1,0.7-0.3,1.5
	c-0.7,3.2-2.8,10.4-9.1,14.3c-9.1,5.7-10.8,13.4-11,14.8c-0.3,1.3-0.5,2.7-0.5,4c0,11.3,11.1,20.5,24.8,20.5
	c13.7,0,24.8-9.2,24.8-20.5c0-1.6-0.2-3.2-0.7-4.8c-0.4-2-2.3-8.6-10.8-14c-0.9-0.5-1.6-1.1-2.3-1.8c-4.5-4.1-6.2-9.9-6.8-12.6h1.6
	h5.7h1.6h7.1h2.2h17h3v8.9v1.7l-17.4,30.9c-1.1,2-0.4,4.6,1.6,5.7c0.7,0.4,1.4,0.5,2.1,0.5c1.5,0,2.9-0.8,3.7-2.1L94,425.1h13.4
	l-1.2,44.6c0,0.1,0,0.1,0,0.2c0,0.2,0,0.3,0,0.5c0,0.1,0,0.2,0.1,0.4c0,0.1,0.1,0.3,0.1,0.4c0,0.1,0.1,0.2,0.1,0.4
	c0.1,0.1,0.1,0.3,0.2,0.4c0.1,0.1,0.1,0.2,0.2,0.3c0.1,0.1,0.2,0.2,0.3,0.3c0.1,0.1,0.1,0.1,0.2,0.2c0,0,0.1,0.1,0.1,0.1
	c0.1,0.1,0.2,0.2,0.3,0.3c0.1,0.1,0.2,0.2,0.3,0.2c0.1,0.1,0.2,0.1,0.4,0.2c0.1,0.1,0.3,0.1,0.4,0.2c0,0,0.1,0,0.1,0.1
	c0.1,0,0.2,0.1,0.4,0.1c0.1,0,0.2,0,0.2,0.1c0.3,0,0.5,0.1,0.8,0.1c0,0,0,0,0,0h73.4h0h0c0,0,0,0,0,0c0.1,0,0.3,0,0.4,0
	c0.1,0,0.2,0,0.3,0c0.3-0.1,0.5-0.1,0.8-0.2h0c0,0,0,0,0,0c0.3-0.1,0.5-0.2,0.7-0.4c0,0,0,0,0,0c1.1-0.8,1.9-2,1.9-3.5
	c0-0.2,0-0.4,0-0.7L186.4,409.6z M54.1,430.2c2.2,1.4,4,3,5.3,4.8c0.8,1.1,1.3,2.1,1.6,2.8l-0.1,0l0.5,1.5l0.1,0.2
	c0,0.1,0.1,0.3,0.1,0.4c0.2,0.8,0.3,1.6,0.3,2.4c0,6.9-7.6,12.5-16.9,12.5s-16.9-5.6-16.9-12.5c0-0.9,0.1-1.8,0.4-2.7l0.3-1.1
	c0.7-2,2.6-5.4,7.1-8.3c2.2-1.4,4.2-3.2,6-5.2c1.2-1.4,2.2-2.9,3.1-4.5c0.9,1.6,1.9,3.1,3.1,4.5C49.8,427.1,51.8,428.8,54.1,430.2z
	 M128.9,289.3c0.1,0,0.1-0.1,0.2-0.1c4-2.6,7.3-5.6,10-8.8c3.6-4.3,6.2-9,8-13.3c1.8,4.3,4.4,9,8,13.3c2.8,3.3,6.1,6.4,10.2,9
	c5.1,3.2,8.4,6.6,10.6,9.6c3.5,4.8,4.1,8.6,4.1,8.9c0,0,0,0,0,0l0,0c0,0.1,0.1,0.3,0.1,0.4c0,0.2,0.1,0.4,0.2,0.5
	c0.5,1.7,0.7,3.5,0.7,5.4c0,9-6,17-15.1,21.6h-37.9c-3.7-1.9-6.9-4.4-9.4-7.3c-2.1-2.4-3.7-5.1-4.6-7.9c-0.7-2.1-1.1-4.2-1.1-6.4
	c0-2,0.3-4,0.9-5.9l-0.1-0.1c0.1-0.4,0.2-0.9,0.4-1.4c0.8-2.6,2.8-7,7.1-11.5C123.4,293.3,125.8,291.2,128.9,289.3z M147.2,387
	c-4.8,0-9.1,2.1-12,5.4c-1.9-2.2-4.4-3.8-7.3-4.7V379v-10.6V361h38.7v26.7c-2.8,0.9-5.3,2.5-7.3,4.7
	C156.2,389.1,151.9,387,147.2,387z M155,403.2c0,0.8-0.2,1.6-0.4,2.3h-14.9c-0.2-0.7-0.4-1.5-0.4-2.3c0-1.5,0.5-2.9,1.2-4.1
	c1.4-2.2,3.8-3.7,6.6-3.7c2.8,0,5.3,1.5,6.6,3.7C154.5,400.3,155,401.7,155,403.2z M115.2,403.2c0-3,1.7-5.6,4.2-6.9
	c1.1-0.6,2.3-0.9,3.6-0.9c1.8,0,3.4,0.6,4.8,1.7c0.7,0.6,1.4,1.3,1.9,2.1c0.8,1.2,1.2,2.6,1.2,4.1c0,0.8-0.2,1.6-0.4,2.3h-10.4h-4.5
	C115.4,404.8,115.2,404,115.2,403.2z M123.6,352.6h-0.2l-1.7-8.4h4.7h41.5h4.7l-1.7,8.4h-0.2H123.6z M50.1,400.8
	c0.6-5.1,2.8-7.8,3.5-7.8c0.8,0,3,2.8,3.5,7.8H50.1z M48.8,302.6c0-2.2,0.4-4.3,1-6.4l-0.1-0.1c0.1-0.4,0.2-0.9,0.4-1.6
	c1.3-4,5.1-12.3,15.7-19c4.5-2.8,8.1-6.2,11.1-9.7c4-4.7,6.7-9.8,8.7-14.4c2,4.7,4.8,9.7,8.7,14.4c3,3.6,6.6,6.9,11.1,9.7
	c5.5,3.5,9.1,7.2,11.5,10.4c0.3,0.4,0.5,0.7,0.7,1.1c-9.8,8.8-11.9,18.3-12.3,20.3c-0.5,2.2-0.8,4.4-0.8,6.7c0,3,0.5,6,1.4,8.8h-46
	C53.1,317.8,48.8,310.6,48.8,302.6z M65.8,400.8c1.1-4.5,5.2-7.8,10-7.8c4.8,0,8.9,3.3,10,7.8H65.8z M79.5,369.8
	c-0.3,1.3-0.5,2.7-0.5,4c0,4.9,2.1,9.3,5.5,12.8c-2.6-1.3-5.5-2.1-8.6-2.1c-5.3,0-10,2.2-13.4,5.7c-0.4-0.7-0.9-1.4-1.4-2v-54.1
	v-2.8h49.3c1.3,1.8,2.7,3.4,4.3,5c-0.5,0.3-1,0.6-1.3,1.1c-0.8,1-1.1,2.3-0.9,3.5l2.5,12.5c-5.9-5.2-7.1-13.3-7.2-14.2
	c0-0.2-0.1-0.3-0.1-0.5l-0.1-0.3c0-0.1-0.1-0.2-0.2-0.4c0-0.1-0.1-0.2-0.2-0.4l0,0c-0.1-0.2-0.3-0.5-0.5-0.7l0,0c0,0,0-0.1-0.1-0.1
	h0h0c0,0,0,0,0,0c-0.1-0.1-0.2-0.2-0.3-0.2c0,0,0,0,0,0v0c0,0,0,0,0,0c-0.1-0.1-0.2-0.2-0.3-0.2l-0.2-0.1l0,0
	c-0.1-0.1-0.2-0.1-0.3-0.2c0,0,0,0,0,0l0,0c-0.2-0.1-0.3-0.2-0.5-0.2h0h0l0,0c0,0,0,0,0,0c0,0,0,0,0,0l0,0c-0.2-0.1-0.4-0.1-0.7-0.2
	l-0.3,0v0c0,0,0,0,0,0l0,0c0,0,0,0,0,0c-0.1,0-0.2,0-0.3,0c-0.2,0-0.3,0-0.5,0c-0.1,0-0.1,0-0.2,0c-0.2,0-0.4,0.1-0.6,0.1
	c-0.1,0-0.2,0.1-0.3,0.1c-0.2,0.1-0.4,0.2-0.6,0.3c0,0-0.1,0-0.1,0.1l0,0l0,0c0,0,0,0,0,0c0,0,0,0,0,0l-0.1,0c0,0,0,0,0,0l0,0l0,0
	l0,0l-0.1,0.1c0,0,0,0,0,0c-0.1,0.1-0.1,0.1-0.2,0.2c0,0-0.1,0-0.1,0.1l0,0l0,0l0,0c0,0,0,0,0,0v0l-0.1,0.1c0,0,0,0,0,0l0,0v0
	c-0.1,0.1-0.2,0.2-0.3,0.4l-0.1,0.1l0,0c-0.1,0.1-0.2,0.3-0.2,0.4l0,0l0,0c0,0,0,0,0,0l0,0v0l-0.1,0.1l0,0l0,0h0l-0.1,0.2
	c0,0,0,0,0,0.1c0,0,0,0,0,0c0,0,0,0.1,0,0.1c0,0.1,0,0.1-0.1,0.2l0,0c0,0,0,0.1,0,0.1c0,0.2-0.1,0.3-0.1,0.5l0,0.2
	c-0.1,1-1.6,10.9-9.3,15.8C81.5,360.7,79.7,368.4,79.5,369.8z M86.9,373.8c0-0.9,0.1-1.8,0.4-2.7l0.3-1.1c0.7-2,2.6-5.4,7.1-8.3
	c2.2-1.4,4.2-3.2,6-5.2c1.2-1.4,2.2-2.9,3.1-4.5c0.9,1.6,1.9,3.1,3.1,4.5c1.7,2.1,3.8,3.8,6,5.2c2.2,1.4,4,3,5.3,4.8
	c0.5,0.7,0.9,1.4,1.2,2v10.1c-2.5,4.5-8.6,7.7-15.6,7.7C94.5,386.3,86.9,380.7,86.9,373.8z M95.8,416.7V405v-11.8
	c2.5,0.7,5.2,1.1,8.1,1.1c2.1,0,4.2-0.2,6.2-0.7c-2,2.7-3.2,6-3.2,9.6c0,2.1,0.4,4.1,1.1,6c0,0.2-0.1,0.3-0.1,0.5l-0.2,7.1H95.8z
	 M116.1,417.9l0.1-3.9h9.2l-1.9,5.5l-8.1,23.3L116.1,417.9z M116.3,465.6l14.3-41.2l10.4,41.2H116.3z M137.2,416.1l-0.5-2.1h17.2
	l-1,4.4l-7.2,31.6L137.2,416.1z M150.8,465.6l9.5-42l17.3,42H150.8z M167.6,419l-2.1-5.1h12.7l0.1,3.9L179,447L167.6,419z
	 M178.7,405.5h-4.5h-10.4c-0.2-0.7-0.4-1.5-0.4-2.3c0-1.5,0.5-2.9,1.2-4.1c0.5-0.8,1.1-1.5,1.9-2.1c1.3-1,3-1.7,4.8-1.7
	c1.3,0,2.5,0.4,3.6,0.9c2.5,1.3,4.2,3.9,4.2,6.9C179.1,404,178.9,404.8,178.7,405.5z"/>
<path fill="#41516B" d="M70.8,347.8c-2.3,0-4.2,1.9-4.2,4.2v18.2c0,2.3,1.9,4.2,4.2,4.2c2.3,0,4.2-1.9,4.2-4.2V352
	C75,349.7,73.2,347.8,70.8,347.8z"/>
<path fill="#41516B" d="M419,490.2l-19.9-58.1v-28c0-2.3-1.9-4.2-4.2-4.2c-2.3,0-4.2,1.9-4.2,4.2v29.3l-6.7,19.9
	c-0.7,2.2,0.4,4.6,2.6,5.3c2.2,0.7,4.6-0.4,5.3-2.6l3.2-9.5l15.9,46.4c0.6,1.7,2.2,2.8,4,2.8c0.5,0,0.9-0.1,1.4-0.2
	C418.6,494.8,419.8,492.4,419,490.2z"/>
<path fill="#41516B" d="M223.4,375.3h-50.8c-2.3,0-4.2-1.9-4.2-4.2c0-2.3,1.9-4.2,4.2-4.2h50.8c2.3,0,4.2,1.9,4.2,4.2
	C227.6,373.4,225.8,375.3,223.4,375.3z"/>
<path fill="#41516B" d="M277.4,296.5l-0.2-3.4c0.1-0.9,0.2-1.9,0.2-2.9c0-2-0.3-3.9-0.8-5.7l-0.5-7.6l-1.2-17.3l-2-27.9
	c3.4-1.8,5.7-5.4,5.7-9.5c0-6-4.8-10.8-10.8-10.8H265l-25.5-98.3c1-1.7,1.6-3.7,1.6-6c0-3.5-1.4-6.5-3.6-8.4V88.6
	c2.2-1.9,3.6-4.9,3.6-8.4c0-2.9-1-5.5-2.6-7.3c3.1-3,5.1-6.9,5.1-11.1c0-1.3-0.2-2.7-0.6-4c-0.3-1.8-1.9-7.1-8.8-11.4
	c-5.7-3.6-6.5-11.1-6.5-11.1l0-0.4l0,0V4.2c0-2.3-1.9-4.2-4.2-4.2c-2.3,0-4.2,1.9-4.2,4.2v30.7c0,0,0,0.1,0,0.1l0,0.3
	c-0.1,1-1.3,7.8-6.5,11.1c-7.4,4.6-8.8,11-9,12.1c-0.3,1.1-0.4,2.2-0.4,3.4c0,4.3,1.9,8.2,5.1,11.1c-1.6,1.9-2.6,4.4-2.6,7.3
	c0,3.5,1.4,6.5,3.6,8.4v10.1c-2.2,1.9-3.6,4.9-3.6,8.4c0,3,1.1,5.7,2.8,7.6l-18.8,68.1c-0.5,0.8-0.8,1.7-0.7,2.6l-7.2,26h-2.7
	c-6,0-10.8,4.8-10.8,10.8c0,4.1,2.3,7.7,5.7,9.5l-1.8,26l-1.5,21.4l-0.1,2c-1.1,2.1-1.8,4.5-2.1,7c0.5,0.5,1,0.9,1.5,1.4
	c2,1.9,4.1,4.1,6.1,6.2c2.8,3,5.2,6,6.5,8.4h22.2h2.6h30.9h2.6h30.9h1.5c1.2,0,2.2,1,2.2,2.2c0,1.2-1,2.2-2.2,2.2h-7.5h-19h-14.5
	h-19h-14.5H184c0.1,0.5,0.2,1.1,0.3,1.6c0.3,2.5,0.5,4.9,0.6,6.8h84.3v18.8c0,2.3,1.9,4.2,4.2,4.2c2.3,0,4.2-1.9,4.2-4.2v-19.6
	c3.8-1.6,6.4-5.4,6.4-9.8C284.1,301.9,281.3,298.1,277.4,296.5z M244.4,273.3c-0.4-1.2-0.6-2.4-0.6-3.7c0-6.8,5.6-12.3,12.6-12.3
	c4.2,0,7.8,2,10.1,5l0.7,10.2c-3.2-1.9-6.9-3-10.9-3C252,269.6,247.8,270.9,244.4,273.3z M222.9,269.6c-4.4,0-8.6,1.4-12,3.7
	c-0.4-1.2-0.6-2.4-0.6-3.7c0-6.8,5.6-12.3,12.6-12.3c6.9,0,12.6,5.5,12.6,12.3c0,1.3-0.2,2.5-0.6,3.7
	C231.4,270.9,227.3,269.6,222.9,269.6z M189.4,269.6c-3.5,0-6.8,0.9-9.7,2.4l0.8-11c2.3-2.2,5.4-3.6,8.9-3.6
	c6.9,0,12.6,5.5,12.6,12.3c0,1.3-0.2,2.5-0.6,3.7C197.9,270.9,193.8,269.6,189.4,269.6z M182.4,233h82l1.3,18.1
	c-2.8-1.4-6-2.2-9.3-2.2c-6.9,0-12.9,3.3-16.8,8.3c-3.8-5-9.9-8.3-16.8-8.3c-6.9,0-12.9,3.3-16.8,8.3c-3.8-5-9.9-8.3-16.8-8.3
	c-2.9,0-5.7,0.6-8.2,1.6L182.4,233z M256.3,211.5l-25.5,0l0.1-0.1l20.6-18.6l4.8,18.6L256.3,211.5z M214.9,109.1
	c-0.2-0.1-0.7-0.8-0.7-2c0-1.2,0.5-1.9,0.6-2H232c0.2,0.1,0.7,0.8,0.7,2c0,1.1-0.5,1.8-0.7,2H214.9
	C214.9,109.2,214.9,109.1,214.9,109.1z M217.8,90.6H229v6.2h-11.2V90.6z M222,49.4c0.5-0.6,1-1.2,1.4-1.9c0.4,0.7,0.9,1.3,1.4,1.9
	c1.4,1.7,3,3.1,4.8,4.2c1.6,1,2.8,2.1,3.7,3.3c0.3,0.5,0.6,0.9,0.8,1.3l0.6,1.9c0,0.1,0,0.2,0.1,0.2c0.1,0.5,0.2,1,0.2,1.5
	c0,3.9-3.9,7.2-9.1,8.1h-5.2c-5.1-0.9-9.1-4.2-9.1-8.1c0-0.6,0.1-1.1,0.3-1.7l0.3-1c0.5-1.4,1.8-3.6,4.8-5.5
	C219,52.5,220.6,51,222,49.4z M223.4,78.7c1.5,0,2.9-0.1,4.2-0.4l4.3,0c0.2,0.1,0.7,0.8,0.7,2c0,1.1-0.5,1.8-0.7,2l-17.1,0
	c0,0,0,0,0,0c-0.2-0.1-0.7-0.8-0.7-2c0-1.2,0.5-1.9,0.6-2l4.5,0C220.6,78.5,222,78.7,223.4,78.7z M216.6,117.5H232l17.1,66.1
	l-26.2,23.7L198.2,184L216.6,117.5z M195.7,193.2l19.2,18.2l0.1,0.1l-24.3,0l0,0L195.7,193.2z M179.2,219.8h5.9l76.6,0.1
	c0,0,0,0,0,0c0,0,0,0,0,0c0.4,0,0.7-0.1,1-0.1h4.9c1.3,0,2.4,1.1,2.4,2.4c0,1.3-1.1,2.4-2.4,2.4h-88.5c-1.3,0-2.4-1.1-2.4-2.4
	C176.8,220.9,177.9,219.8,179.2,219.8z M178.1,295.7c-0.1-0.1-0.1-0.2-0.1-0.3l0.6-8.2l0.3-3.7c1-1.5,2.3-2.7,3.8-3.6
	c1.9-1.2,4.3-1.9,6.7-1.9c2.5,0,4.8,0.7,6.7,1.9c2.5,1.5,4.3,3.9,5.2,6.6c0.4,1.2,0.6,2.4,0.6,3.7c0,2-0.5,3.8-1.3,5.5H178.1z
	 M211.7,295.7c-0.9-1.7-1.4-3.5-1.4-5.5c0-1.3,0.2-2.5,0.6-3.7c0.9-2.8,2.8-5.1,5.2-6.6c1.9-1.2,4.3-1.9,6.7-1.9
	c2.5,0,4.8,0.7,6.7,1.9c2.5,1.5,4.3,3.9,5.2,6.6c0.4,1.2,0.6,2.4,0.6,3.7c0,2-0.5,3.8-1.4,5.5H211.7z M245.2,295.7
	c-0.9-1.7-1.4-3.5-1.4-5.5c0-1.3,0.2-2.5,0.6-3.7c0.9-2.8,2.8-5.1,5.2-6.6c1.9-1.2,4.3-1.9,6.7-1.9c2.5,0,4.8,0.7,6.7,1.9
	c2.3,1.5,4.1,3.6,5.1,6.2l0,0.5l0.4,6.2c-0.2,1-0.6,2-1.1,3H245.2z"/>
<path fill="#41516B" d="M200.8,331.6c-2.3,0-4.2,1.9-4.2,4.2v18.8c0,2.3,1.9,4.2,4.2,4.2c2.3,0,4.2-1.9,4.2-4.2v-18.8
	C205,333.5,203.1,331.6,200.8,331.6z"/>
<path fill="#41516B" d="M169.5,296.7l0-0.3c0,0-0.1,0-0.1,0C169.4,296.6,169.5,296.7,169.5,296.7z"/>
<path fill="#41516B" d="M35,499.7c-2.3,0-4.2-1.9-4.2-4.2v-23.1c0-2.3,1.9-4.2,4.2-4.2c2.3,0,4.2,1.9,4.2,4.2v23.1
	C39.2,497.8,37.3,499.7,35,499.7z"/>
<g>
	<path fill="#41516B" d="M81.1,543.6v-39.9h10.3v15.2l12.9-15.2h12.3L101.1,522l18.3,21.5h-12.5l-15.6-17.7v17.7H81.1z"/>
	<path fill="#41516B" d="M123.5,543.6v-39.9h17.8c4.4,0,8,1.1,10.6,3.5c2.6,2.3,3.9,5.3,3.9,9c0,3.7-1.3,6.7-3.9,9.1
		c-2.6,2.3-6.2,3.5-10.6,3.5h-7.5v14.9H123.5z M133.8,520.3h6.8c3,0,4.9-1.5,4.9-4c0-2.5-1.9-3.9-4.9-3.9h-6.8V520.3z"/>
	<path fill="#41516B" d="M161.5,543.6v-39.9h30.3v9h-20.1v5.4h16v8.7h-16v7.8h20.5v9H161.5z"/>
	<path fill="#41516B" d="M198.7,543.6v-39.9h10.2L219,519l10.1-15.3h10.1v39.9h-10.2v-24.3L222,530h-5.6l-7.4-10.7v24.3H198.7z"/>
	<path fill="#41516B" d="M244,543.1v-9.4c1.1,0.5,2.1,0.7,3,0.7c2,0,3.2-1.2,3.8-3.6c0.6-2.5,1-7.5,1-15.1l0.1-12h29.8v39.9h-10.3
		v-30.9h-9.6l-0.1,4.4c-0.3,10.7-1.3,17.6-3.1,20.9c-2.2,4-5.6,6-10.4,6C246.4,543.9,244.9,543.7,244,543.1z"/>
	<path fill="#41516B" d="M290,543.6v-39.9h30.3v9h-20.1v5.4h16v8.7h-16v7.8h20.5v9H290z"/>
	<path fill="#41516B" d="M327.1,543.6v-39.9h19.4c7.3,0,12.4,3.5,12.4,10.1c0,3.9-2.2,6.6-4.7,7.8c1.9,0.5,3.7,1.6,5.2,3.5
		c1.5,1.9,2.3,4.2,2.3,7.1c0,3.4-1.3,6.2-3.9,8.3c-2.6,2.1-6,3.1-10.3,3.1H327.1z M337.4,519h7.6c2.5,0,4.1-1.3,4.1-3.4
		c0-2.2-1.6-3.5-4.1-3.5h-7.6V519z M337.4,535h8.3c3.1,0,5-1.5,5-4.2s-2-4.3-5-4.3h-8.3V535z"/>
</g>
<g>
	<path fill="#41516B" d="M89.3,562.4h17v3.7h-6.4v16.6h-4.2v-16.6h-6.4V562.4z"/>
	<path fill="#41516B" d="M111.1,565c2-2.1,4.5-3.1,7.5-3.1s5.5,1,7.5,3.1c2,2,3,4.5,3,7.5c0,2.9-1,5.4-3,7.5s-4.5,3.1-7.5,3.1
		s-5.5-1-7.5-3.1s-3-4.6-3-7.5C108.1,569.6,109.1,567.1,111.1,565z M118.7,579.2c1.8,0,3.3-0.6,4.5-1.9c1.2-1.2,1.8-2.8,1.8-4.8
		s-0.6-3.5-1.8-4.8c-1.2-1.2-2.7-1.9-4.5-1.9s-3.3,0.6-4.5,1.9c-1.2,1.2-1.8,2.8-1.8,4.8s0.6,3.5,1.8,4.8S116.9,579.2,118.7,579.2z"
		/>
	<path fill="#41516B" d="M133.8,582.7v-20.3h8.9c2.2,0,3.9,0.6,5.2,1.7c1.3,1.1,1.9,2.6,1.9,4.4s-0.6,3.3-1.9,4.4
		c-1.2,1.1-3,1.7-5.2,1.7H138v8H133.8z M138,571.1h4.4c2,0,3.2-0.9,3.2-2.5c0-1.6-1.2-2.5-3.2-2.5H138V571.1z"/>
	<path fill="#41516B" d="M153.8,582.7v-20.3h14.6v3.7H158v16.6H153.8z"/>
	<path fill="#41516B" d="M173.5,565c2-2.1,4.5-3.1,7.5-3.1s5.5,1,7.5,3.1c2,2,3,4.5,3,7.5c0,2.9-1,5.4-3,7.5s-4.5,3.1-7.5,3.1
		s-5.5-1-7.5-3.1s-3-4.6-3-7.5C170.5,569.6,171.5,567.1,173.5,565z M181,579.2c1.8,0,3.3-0.6,4.5-1.9c1.2-1.2,1.8-2.8,1.8-4.8
		s-0.6-3.5-1.8-4.8c-1.2-1.2-2.7-1.9-4.5-1.9s-3.3,0.6-4.5,1.9c-1.2,1.2-1.8,2.8-1.8,4.8s0.6,3.5,1.8,4.8S179.2,579.2,181,579.2z"/>
	<path fill="#41516B" d="M196.2,582.7v-20.3h9.5c3.7,0,6.1,1.8,6.1,5.1c0,2.1-1.2,3.5-2.6,4c1.1,0.2,2.1,0.8,2.9,1.8
		s1.2,2.1,1.2,3.6c0,1.7-0.6,3.1-1.9,4.2s-3,1.6-5.1,1.6H196.2z M200.4,570.3h4.7c1.7,0,2.8-0.8,2.8-2.2c0-1.4-1-2.3-2.8-2.3h-4.7
		V570.3z M200.4,579.1h5.3c2.1,0,3.3-0.9,3.3-2.6c0-1.7-1.2-2.7-3.3-2.7h-5.3V579.1z"/>
	<path fill="#41516B" d="M217.8,582.7v-20.3h4.2v6.7h3.8c2.4,0,4.3,0.6,5.7,1.9c1.4,1.2,2.1,2.9,2.1,4.9c0,2-0.7,3.7-2.1,4.9
		c-1.4,1.2-3.3,1.9-5.7,1.9H217.8z M222,579h3.5c2.4,0,3.9-1.2,3.9-3.2c0-2.1-1.5-3.2-3.9-3.2H222V579z M236.1,582.7v-20.3h4.2v20.3
		H236.1z"/>
	<path fill="#41516B" d="M245.6,582.7v-20.3h4.2v13.2l9.8-13.2h3.6v20.3h-4.1v-13.3l-9.9,13.3H245.6z M252.2,556.3
		c0,1.3,0.8,2.1,2.2,2.1c1.4,0,2.2-0.8,2.3-2.1h3.1c0,3-2.3,5-5.3,5s-5.3-1.9-5.3-5H252.2z"/>
	<path fill="#41516B" d="M275.2,586.8v-7.9h2c0.9-1.4,1.6-3.2,2-5.2c0.4-2.1,0.6-4.8,0.6-8.1v-3.2h14.3v16.6h2.8v7.9H293v-4.1h-13.9
		v4.1H275.2z M289.9,578.9v-12.8H284c0,5.2-0.4,9.2-2.2,12.8H289.9z"/>
	<path fill="#41516B" d="M303.1,565c2-2.1,4.5-3.1,7.5-3.1c3,0,5.5,1,7.5,3.1c2,2,3,4.5,3,7.5c0,2.9-1,5.4-3,7.5
		c-2,2.1-4.5,3.1-7.5,3.1c-3,0-5.5-1-7.5-3.1c-2-2.1-3-4.6-3-7.5C300.1,569.6,301.1,567.1,303.1,565z M310.6,579.2
		c1.8,0,3.3-0.6,4.5-1.9s1.8-2.8,1.8-4.8s-0.6-3.5-1.8-4.8c-1.2-1.2-2.7-1.9-4.5-1.9c-1.8,0-3.3,0.6-4.5,1.9
		c-1.2,1.2-1.8,2.8-1.8,4.8s0.6,3.5,1.8,4.8C307.3,578.5,308.8,579.2,310.6,579.2z"/>
	<path fill="#41516B" d="M325.8,582.7v-20.3h4.1l5.9,8.4l5.9-8.4h4.1v20.3h-4.1v-13.9l-4.7,6.5h-2.3l-4.8-6.5v13.9H325.8z"/>
</g>
</svg>
