<?xml version="1.0" encoding="utf-8"?>
<!-- Generator: Adobe Illustrator 17.1.0, SVG Export Plug-In . SVG Version: 6.00 Build 0)  -->
<!DOCTYPE svg PUBLIC "-//W3C//DTD SVG 1.1//EN" "http://www.w3.org/Graphics/SVG/1.1/DTD/svg11.dtd">
<svg version="1.1" id="Слой_1" xmlns="http://www.w3.org/2000/svg" xmlns:xlink="http://www.w3.org/1999/xlink" x="0px" y="0px"
	 viewBox="0 0 500 500" enable-background="new 0 0 500 500" xml:space="preserve">
<g id="_x31_9_5_">
	<path d="M250.5-0.4c-101.4,0-184,82.5-184,184c0,136.6,169.5,304.8,176.8,311.9l7.2,7.1l7.2-7.1c7.2-7.1,176.8-175.3,176.8-311.9
		C434.5,82.2,352-0.4,250.5-0.4z M250.5,473.5C218.1,439.7,87.1,296.3,87.1,183.6c0-90.1,73.3-163.5,163.4-163.5S414,93.5,414,183.6
		C414,296.3,283,439.7,250.5,473.5z"/>
	<path d="M250.5,112.5c-39.2,0-71.1,31.9-71.1,71.2c0,39.2,31.9,71.1,71.1,71.1s71.2-31.9,71.2-71.1
		C321.7,144.4,289.8,112.5,250.5,112.5z M250.5,234.2c-27.9,0-50.6-22.7-50.6-50.6s22.7-50.6,50.6-50.6s50.6,22.7,50.6,50.6
		S278.4,234.2,250.5,234.2z"/>
</g>
</svg>
