<?xml version="1.0" encoding="utf-8"?>
<!-- Generator: Adobe Illustrator 17.1.0, SVG Export Plug-In . SVG Version: 6.00 Build 0)  -->
<!DOCTYPE svg PUBLIC "-//W3C//DTD SVG 1.1//EN" "http://www.w3.org/Graphics/SVG/1.1/DTD/svg11.dtd">
<svg version="1.1" id="Слой_1" xmlns="http://www.w3.org/2000/svg" xmlns:xlink="http://www.w3.org/1999/xlink" x="0px" y="0px"
	 viewBox="0 0 500 500" enable-background="new 0 0 500 500" xml:space="preserve">
<path id="_x31_5_5_" fill="#545759" d="M446.4,350.4c-14.9-5.6-79.4-27.3-101.2-34.7v-33.5c0-3,3.6-13.8,6.7-23.3
	c8.6-26.1,21.7-65.4,21.7-106c0-83.9-49.7-140.3-123.7-140.3c-74,0-123.7,56.4-123.7,140.3c0,40.5,13.1,79.9,21.7,106
	c3.2,9.5,6.7,20.3,6.7,23.3v33.5c-21.9,7.3-86.3,29-101.2,34.7c-34.6,13-54.3,41.4-54.3,77.9l0.1,57.8h501.3l0.1-57.8
	C500.7,391.9,480.9,363.5,446.4,350.4z M479.6,465.2H20.2l-0.1-36.9c0-28,14-48.1,40.7-58.2c17.3-6.5,106.8-36.5,107.7-36.8l7.2-2.4
	v-48.6c0-6.4-3.1-15.7-7.8-29.9c-8.2-24.8-20.6-62.2-20.6-99.4c0-72.4,40.3-119.2,102.7-119.2c62.4,0,102.7,46.8,102.7,119.2
	c0,37.1-12.4,74.6-20.6,99.4c-4.7,14.2-7.8,23.5-7.8,29.9v48.6l7.2,2.4c0.9,0.3,90.4,30.3,107.7,36.8c26.7,10.1,40.8,30.2,40.7,58.2
	L479.6,465.2z"/>
</svg>
