<?xml version="1.0" encoding="utf-8"?>
<!-- Generator: Adobe Illustrator 17.1.0, SVG Export Plug-In . SVG Version: 6.00 Build 0)  -->
<!DOCTYPE svg PUBLIC "-//W3C//DTD SVG 1.1//EN" "http://www.w3.org/Graphics/SVG/1.1/DTD/svg11.dtd">
<svg version="1.1" id="Слой_1" xmlns="http://www.w3.org/2000/svg" xmlns:xlink="http://www.w3.org/1999/xlink" x="0px" y="0px"
	 viewBox="0 0 500 500" enable-background="new 0 0 500 500" xml:space="preserve">
<path id="_x31_8_5_" fill="#545759" d="M497.8,384.5c-3.2-16.7-12.7-31-26.7-40.3c-29.4-19.6-56.2-36.7-75.8-49.2l-4.8-3.1
	c-10.4-6.7-24.9-10.7-38.7-10.7c-14.7,0-27.2,4.5-35,12.7c-5.3,5.5-13.3,15.4-17.2,20.4c-6,7.7-8.9,9.9-12.9,9.9
	c-3.6,0-8.5-1.8-14.4-5.3c-16.6-9.9-28.3-20.2-49.4-38.9l-2.7-2.7c-18.5-20.9-28.7-32.4-38.5-48.9c-9.6-16.1-5.1-19.6,4.7-27.3
	c5-3.9,14.9-12,20.4-17.2c18-17.2,15.5-52.6,2.1-73.7l-2.5-3.9c-12.6-19.7-30-46.8-49.8-76.7C145.1,12.4,125.6,2,104.4,2
	C91.7,2,79.4,5.8,69,13l-1.6,1.1C33,36.8,11.8,64.9,4.5,97.5c-8,35.2-11.4,132,127.8,271.1c114,114,199.7,131,240.6,131c0,0,0,0,0,0
	c10.7,0,21-1.1,30.5-3.2c32.6-7.4,60.7-28.5,83.4-62.9l1.1-1.7C497.5,418.1,501,401.2,497.8,384.5z M470,419.5l-1.4,2
	c-19.5,29.5-43.1,47.5-70.1,53.6c-7.9,1.8-16.6,2.7-25.7,2.7c-37.6,0-116.8-16.2-225.2-124.6C16.1,221.7,18.5,134,25.7,102.3
	c6.1-27,24.1-50.5,53.6-70l2-1.4c6.8-4.7,14.8-7.2,23.1-7.2c13.8,0,26.6,6.8,34.1,18.1c19.8,29.7,37,56.7,49.6,76.4l2.5,3.9
	c8.3,13,10.5,37.3,1.2,46.2c-4.3,4.1-12.7,11-18.8,15.8c-10.2,8-29.3,22.9-10,55.5c10.9,18.3,22.2,31,40.9,52.2l4.5,4.6
	c22.1,19.6,34.3,30.4,52.7,41.3c9.5,5.6,17.8,8.3,25.5,8.3c15.7,0,24.7-11.4,30-18.3c4-5.1,11.5-14.3,15.8-18.8
	c3.7-3.8,10.7-6,19.3-6c9.7,0,20,2.8,26.9,7.2l4.8,3.1c19.5,12.5,46.2,29.6,75.4,49c9.1,6,15.3,15.4,17.3,26.3
	C478.5,399.5,476.2,410.5,470,419.5z"/>
</svg>
